<svg width="383" height="184" viewBox="0 0 383 184" fill="none" xmlns="http://www.w3.org/2000/svg">
<path d="M368.016 130.28C368.016 146.181 319.287 159.716 251.154 164.793C245.722 165.198 240.169 165.55 234.504 165.843C220.741 166.562 206.337 166.94 191.508 166.94C167.937 166.94 145.445 165.982 124.888 164.24C119.926 163.82 115.079 163.353 110.357 162.844C53.7049 156.741 15 144.451 15 130.28C15 115.444 57.4344 102.666 118.472 96.8965C140.728 94.791 165.46 93.62 191.508 93.62C214.169 93.62 235.834 94.5071 255.737 96.1247C270.8 97.346 284.855 98.9873 297.575 100.977C312.191 103.26 325.041 106.008 335.629 109.11C356.027 115.089 368.016 122.393 368.016 130.28Z" fill="url(#paint0_linear)"/>
<path d="M298.831 121.527C298.653 122.497 298.47 123.487 298.222 124.451C297.758 126.276 297.078 128.012 295.825 129.39C294.061 131.336 291.437 132.232 288.904 132.915C274.497 136.821 259.201 136.404 244.77 140.216C242.185 140.905 239.513 141.792 237.663 143.732C232.97 148.656 236.044 156.705 235.169 163.454C235.062 164.273 234.876 165.116 234.504 165.843C226.087 166.284 217.431 166.594 208.586 166.772C202.965 166.884 197.271 166.94 191.508 166.94C181.637 166.94 171.953 166.772 162.523 166.446C149.437 166 136.836 165.252 124.888 164.24C124.814 163.835 124.773 163.424 124.74 163.025C123.298 146.867 122.187 129.301 131.1 115.746C131.248 115.524 131.395 115.299 131.552 115.08C133.632 112.064 136.183 109.379 139.041 107.087C141.777 104.893 144.797 103.059 147.992 101.613C148.766 101.261 149.549 100.901 150.338 100.572C152.475 99.6881 154.668 99.0582 156.991 99.5757C164.719 101.3 171.658 105.472 179.415 107.114C190.873 109.541 203.438 105.901 211.831 97.7245C213.191 96.3968 214.559 94.8975 216.409 94.4568C217.677 94.1523 219.009 94.3977 220.28 94.6993C221.87 95.0719 223.439 95.5333 224.997 96.0478C238.032 100.374 250.146 108.846 263.781 108.081C265.144 108.004 266.837 107.536 267.047 106.185C267.215 105.106 266.288 104.195 265.442 103.506C262.292 100.936 259.053 98.4727 255.737 96.1247C248.541 91.0265 240.97 86.4606 233.106 82.4773C231.753 81.7853 230.281 81.0106 229.69 79.6059C229.291 78.6596 229.368 77.5773 229.524 76.563C230.299 71.3938 232.808 66.5027 236.546 62.8535C237.601 61.8244 238.816 60.8604 240.261 60.5794C241.511 60.3399 242.755 60.6327 243.946 61.1236L243.949 61.1265C244.685 61.4282 245.403 61.8096 246.091 62.1852C255.344 67.2567 264.414 72.6654 273.268 78.4053C280.31 82.9653 287.299 87.8062 292.814 94.1316C294.64 96.2252 296.31 98.5111 297.575 100.977C298.47 102.716 299.168 104.547 299.578 106.466C300.636 111.416 299.735 116.547 298.831 121.527Z" fill="#E6E6E6"/>
<path d="M224.997 96.0479C220.762 102.69 206.725 121.429 184.226 119.208C163.924 117.206 154.059 106.117 150.338 100.572C152.472 99.6852 154.668 99.0583 156.991 99.5758C164.716 101.3 171.658 105.472 179.412 107.114C190.873 109.541 203.435 105.901 211.831 97.7246C213.191 96.3968 214.559 94.9005 216.406 94.4599C217.677 94.1553 219.007 94.4007 220.28 94.7024C221.87 95.072 223.439 95.5333 224.997 96.0479Z" fill="#CCCCCC"/>
<path d="M227.618 64.9501C225.242 92.3602 208.377 113.9 184.637 113.9C160.898 113.9 142.995 92.0615 141.656 64.9501C140.326 37.9482 160.898 16 184.637 16C208.377 16 229.953 38.0162 227.618 64.9501Z" fill="#E6E6E6"/>
<path d="M222.124 69.1109C216.631 89.5391 205.873 104.097 185.825 104.097C165.777 104.097 153.832 88.4982 149.526 69.1109C145.338 50.25 165.777 34.1245 185.825 34.1245C205.873 34.1245 227.142 50.4511 222.124 69.1109Z" fill="url(#paint1_linear)"/>
<path d="M156.089 55.6351C156.083 55.7859 156.086 55.9426 156.143 56.0845C156.287 56.4572 156.74 56.6109 157.138 56.5962C158.258 56.5577 159.118 55.6232 159.795 54.7331C160.259 54.124 160.448 53.5769 159.896 52.9914C159.621 52.6986 158.722 52.0362 158.356 51.9948C156.89 51.8203 156.125 54.5912 156.089 55.6351Z" fill="white"/>
<path d="M168.552 43.0996C169.29 42.7477 170.068 42.4786 170.848 42.2272C180.692 39.0601 191.428 38.723 201.449 41.2603C202.502 41.5264 203.601 41.8547 204.349 42.6442C198.601 42.4816 192.85 42.4224 187.102 42.4668C185.923 42.4756 184.741 42.4904 183.57 42.6383C180.745 42.9961 178.082 44.1228 175.464 45.2377C172.884 46.3348 170.304 47.4319 167.727 48.529C166.737 48.9489 165.552 49.36 164.645 48.7863C161.766 46.9735 167.26 43.7147 168.552 43.0996Z" fill="white"/>
<path d="M209.063 166.632C203.443 166.744 197.748 166.8 191.985 166.8C182 167 172.43 166.632 163 166.307C163 166.632 163.198 165.78 163.364 165.467C164.942 162.486 165.873 160.073 165.615 156.616C165.344 152.987 164.256 149.338 164.945 145.692C165.447 143.034 166.88 140.656 168.305 138.355C168.893 137.403 169.499 136.436 170.373 135.741C172.69 133.899 176.027 134.49 178.926 135.094C185.868 136.534 193.229 137.453 199.938 135.15C202.057 134.422 204.439 133.393 206.41 134.458C207.583 135.094 208.295 136.362 208.638 137.655C210.012 142.838 206.345 148.218 207.131 153.526C207.503 156.021 208.833 158.266 209.527 160.694C210.089 162.651 210.116 164.982 209.063 166.632Z" fill="#B3B3B3"/>
<path d="M140.973 160.488C142.008 160.162 143.335 160.547 143.716 161.564C143.801 161.795 143.837 162.04 143.926 162.268C144.044 162.561 144.248 162.806 144.41 163.075C144.874 163.838 144.922 164.962 144.221 165.515C143.976 165.707 143.674 165.808 143.379 165.902C142.758 166.103 142.138 166.304 141.517 166.505C140.716 166.766 139.827 167.023 139.052 166.686C135.675 165.216 138.769 161.18 140.973 160.488Z" fill="#B3B3B3"/>
<path d="M117.588 162.102C115.83 159.609 115.508 155.86 117.63 153.665C118.856 152.397 120.638 151.856 122.361 151.471C124.368 151.022 126.404 150.711 128.455 150.543C130.275 150.395 132.158 150.368 133.86 151.034C135.612 151.72 137.037 153.101 138.015 154.712C139.508 157.17 140.013 160.213 139.392 163.022C139.174 164.01 138.804 165 138.098 165.725C136.945 166.902 135.163 167.141 133.523 167.242C127.524 167.597 121.424 167.54 117.588 162.102Z" fill="#CCCCCC"/>
<path d="M243.287 69.6693C242.551 72.2539 241.389 75.007 239.56 77.3609C238.248 79.0524 236.59 80.537 234.495 81.6075C234.004 81.8588 233.419 81.8411 232.934 81.5779C231.829 80.9746 230.771 80.2501 230.292 79.1116C229.893 78.1653 229.97 77.083 230.127 76.0687C230.287 75.007 230.517 73.9602 230.821 72.9311C231.983 68.9448 234.179 65.2602 237.149 62.3592C237.397 62.1167 237.654 61.8801 237.92 61.6554C238.786 60.9161 239.758 60.301 240.863 60.0851C242.113 59.8456 243.361 60.6054 244.552 61.0963V60.6322C244.552 60.6322 244.655 64.858 243.287 69.6693Z" fill="#CCCCCC"/>
<path d="M242.965 70.205C242.229 72.7896 241.068 75.5427 239.238 77.8966C236.785 77.7103 233.552 75.5634 230.5 73.4668C228.28 71.9439 226.161 70.4475 224.512 69.7526C222.384 68.8536 220 68.8654 217.7 68.6318C215.401 68.4012 212.96 67.8216 211.423 66.0946C210.779 65.3701 210.327 64.3025 210.767 63.439C211.382 62.2266 213.105 62.3301 214.458 62.4779C215.809 62.6258 217.632 62.2532 217.73 60.8988C217.783 60.1359 217.204 59.4853 216.613 59.0033C215.318 57.9416 213.764 57.1935 212.127 56.8416C210.475 56.4897 208.353 56.2265 207.892 54.5971C207.579 53.4852 208.368 52.2905 209.405 51.7878C210.445 51.2821 211.66 51.3117 212.809 51.4329C217.665 51.9415 222.251 53.8519 226.735 55.7859C230.491 57.4064 234.566 59.296 237.598 62.1911C237.979 62.5519 238.343 62.9274 238.686 63.3237C240.169 65.0241 242.214 67.6766 242.965 70.205Z" fill="#B3B3B3"/>
<defs>
<linearGradient id="paint0_linear" x1="191.303" y1="163.031" x2="191.715" y2="97.2789" gradientUnits="userSpaceOnUse">
<stop offset="0.00773927"/>
<stop offset="0.9827" stop-color="#4D4D4D"/>
</linearGradient>
<linearGradient id="paint1_linear" x1="196.325" y1="99.3064" x2="178.154" y2="38.0202" gradientUnits="userSpaceOnUse">
<stop/>
<stop offset="0.9881" stop-color="#282828"/>
</linearGradient>
</defs>
</svg>
