<svg width="260" height="229" viewBox="0 0 260 229" fill="none" xmlns="http://www.w3.org/2000/svg">
<path d="M68.6724 69.4762C33.4404 69.4761 23.7522 88.9738 12.8564 103.109C-2.65152 117.58 8.67761 155.538 28.3643 181.985C48.051 208.431 130.791 188.759 154.749 185.789C178.707 182.82 243.803 148.857 232.01 112.389C220.217 75.9207 252.735 6.23232 176.736 42.1945C161.134 49.5772 136.769 69.4762 68.6724 69.4762Z" fill="#005E84"/>
<path d="M229.855 118.232C229.855 171.555 186.608 214.798 133.278 214.798C123.92 214.798 114.864 213.47 106.291 210.975" stroke="white" stroke-width="2" stroke-miterlimit="10"/>
<path d="M49.1777 70.7435C55.376 59.797 63.627 50.1987 73.4477 42.4517C89.8894 29.4327 110.678 21.6655 133.278 21.6655C139.536 21.6655 145.674 22.2692 151.611 23.396" stroke="white" stroke-width="2" stroke-miterlimit="10"/>
<path d="M183.086 161.414C170.991 175.338 153.161 184.152 133.278 184.152C96.8727 184.152 67.3703 154.653 67.3703 118.252C67.3703 112.557 68.0948 107.024 69.4632 101.752" stroke="white" stroke-width="2" stroke-miterlimit="10"/>
<path d="M110.477 56.3762C117.581 53.7603 125.269 52.3316 133.278 52.3316C169.683 52.3316 199.186 81.8307 199.186 118.232" stroke="white" stroke-width="2" stroke-miterlimit="10"/>
<path d="M21.3257 115.918C21.3257 109.479 21.869 103.16 22.9155 97.0028C25.4109 82.2935 30.8043 68.5501 38.4516 56.3963" stroke="white" stroke-width="2" stroke-miterlimit="10"/>
<path d="M133.278 227.857C115.146 227.857 98.04 223.551 82.8863 215.905" stroke="white" stroke-width="2" stroke-miterlimit="10"/>
<path d="M176.807 12.7513C193.289 19.7136 207.738 30.4991 219.068 44.0011C228.104 54.7664 235.168 67.2824 239.655 80.9252C243.278 91.9321 245.23 103.704 245.23 115.918C245.23 122.115 244.727 128.192 243.761 134.108" stroke="white" stroke-width="2" stroke-miterlimit="10"/>
<path d="M106.009 7.31844C114.743 5.12512 123.88 3.95803 133.278 3.95803" stroke="white" stroke-width="2" stroke-miterlimit="10"/>
<path d="M253.401 206.165H37.7674C34.95 206.165 32.6759 203.892 32.6759 201.075V200.048C32.6759 197.231 34.95 194.957 37.7674 194.957H253.421C256.238 194.957 258.512 197.231 258.512 200.048V201.075C258.492 203.892 256.218 206.165 253.401 206.165Z" fill="white" stroke="#78BCC4" stroke-miterlimit="10"/>
<path d="M221.725 195.36H6.09148C3.27406 195.36 1 193.086 1 190.269V189.243C1 186.426 3.27406 184.152 6.09148 184.152H221.745C224.562 184.152 226.836 186.426 226.836 189.243V190.269C226.816 193.066 224.542 195.36 221.725 195.36Z" fill="white" stroke="#78BCC4" stroke-miterlimit="10"/>
<path d="M70.4893 179.544H81.5174" stroke="white" stroke-width="2" stroke-miterlimit="10"/>
<path d="M67.9334 184.575H78.9414" stroke="white" stroke-width="2" stroke-miterlimit="10"/>
<path d="M51.3713 169.463H70.087C70.087 169.463 71.7171 172.2 70.087 174.493H51.3713C51.3713 174.514 54.4906 170.851 51.3713 169.463Z" fill="#002C3E" stroke="white" stroke-width="2" stroke-miterlimit="10"/>
<path d="M69.4428 169.463H81.1149" stroke="white" stroke-width="2" stroke-miterlimit="10"/>
<path d="M58.817 170.731H65.0958" stroke="white" stroke-width="0.5" stroke-miterlimit="10"/>
<path d="M55.8387 172.783H58.8172" stroke="white" stroke-width="0.5" stroke-miterlimit="10"/>
<path d="M69.8453 174.514H81.5175" stroke="white" stroke-width="2" stroke-miterlimit="10"/>
<path d="M52.2368 174.514H70.9525C70.9525 174.514 72.5826 177.25 70.9525 179.544H52.2368C52.2368 179.544 55.3561 175.882 52.2368 174.514Z" fill="#FEC345" stroke="white" stroke-width="2" stroke-miterlimit="10"/>
<path d="M54.3496 177.029H57.328" stroke="white" stroke-width="0.5" stroke-miterlimit="10"/>
<path d="M60.1855 177.029H66.4844" stroke="white" stroke-width="0.5" stroke-miterlimit="10"/>
<path d="M64.3111 175.761H67.2694" stroke="white" stroke-width="0.5" stroke-miterlimit="10"/>
<path d="M67.2696 179.544H78.9418" stroke="white" stroke-width="2" stroke-miterlimit="10"/>
<path d="M49.6606 179.544H68.3763C68.3763 179.544 70.0064 182.281 68.3763 184.575H49.6606C49.6606 184.575 52.7799 180.912 49.6606 179.544Z" stroke="white" stroke-width="2" stroke-miterlimit="10"/>
<path d="M51.7738 182.059H54.7523" stroke="white" stroke-width="0.5" stroke-miterlimit="10"/>
<path d="M57.6097 182.059H63.9087" stroke="white" stroke-width="0.5" stroke-miterlimit="10"/>
<path d="M60.2462 155.176H68.1953L66.525 169.463H62.2385L60.2462 155.176Z" fill="white"/>
<path d="M60.8703 158.818L67.6321 158.939L67.2296 162.541L61.4136 162.722L60.8703 158.818Z" fill="#FEC345"/>
<path d="M64.4367 162.167C64.2218 162.167 64.0151 162.137 63.8167 162.078C63.6211 162.019 63.4696 161.941 63.3621 161.844L63.482 161.642C63.5867 161.731 63.7258 161.805 63.8994 161.862C64.073 161.916 64.2521 161.943 64.4367 161.943C64.6958 161.943 64.89 161.903 65.0195 161.823C65.149 161.74 65.2138 161.633 65.2138 161.503C65.2138 161.404 65.178 161.324 65.1063 161.265C65.0374 161.206 64.952 161.161 64.8501 161.13C64.7481 161.097 64.6062 161.062 64.4243 161.024C64.2067 160.976 64.0331 160.932 63.9035 160.889C63.774 160.844 63.6624 160.777 63.5688 160.687C63.4778 160.597 63.4324 160.475 63.4324 160.321C63.4324 160.195 63.4709 160.082 63.5481 159.98C63.6252 159.876 63.7437 159.793 63.9035 159.732C64.0634 159.67 64.2618 159.639 64.4987 159.639C64.6641 159.639 64.8253 159.659 64.9823 159.7C65.1421 159.738 65.2799 159.791 65.3957 159.859L65.2923 160.069C65.1711 160 65.0416 159.949 64.9038 159.916C64.766 159.881 64.631 159.863 64.4987 159.863C64.2452 159.863 64.0537 159.906 63.9242 159.991C63.7975 160.074 63.7341 160.181 63.7341 160.314C63.7341 160.413 63.7685 160.494 63.8374 160.555C63.9091 160.614 63.9972 160.661 64.1019 160.694C64.2094 160.724 64.3527 160.759 64.5318 160.797C64.744 160.842 64.9148 160.887 65.0443 160.932C65.1766 160.974 65.2882 161.04 65.3791 161.13C65.4701 161.218 65.5155 161.337 65.5155 161.489C65.5155 161.614 65.4756 161.729 65.3957 161.833C65.3185 161.935 65.1986 162.017 65.0361 162.078C64.8735 162.137 64.6737 162.167 64.4367 162.167Z" fill="white"/>
<path d="M68.3563 155.74H59.9242C59.7833 155.74 59.6626 155.619 59.6626 155.478V154.593C59.6626 154.452 59.7833 154.331 59.9242 154.331H68.3563C68.4972 154.331 68.618 154.452 68.618 154.593V155.478C68.618 155.619 68.4972 155.74 68.3563 155.74Z" fill="#F7444E"/>
<path d="M67.7122 154.351H60.7894C60.6686 154.351 60.5479 154.251 60.5479 154.11V153.828C60.5479 153.707 60.6485 153.587 60.7894 153.587H67.7122C67.8329 153.587 67.9537 153.687 67.9537 153.828V154.11C67.9537 154.251 67.8531 154.351 67.7122 154.351Z" fill="#F7444E"/>
<path d="M21.3259 129.239C25.9161 129.239 29.6372 125.518 29.6372 120.928C29.6372 116.338 25.9161 112.618 21.3259 112.618C16.7356 112.618 13.0145 116.338 13.0145 120.928C13.0145 125.518 16.7356 129.239 21.3259 129.239Z" fill="white" stroke="#78BCC4" stroke-miterlimit="10"/>
<path d="M179.343 37.3004C189.368 37.3004 197.495 29.1743 197.495 19.1502C197.495 9.12611 189.368 1 179.343 1C169.317 1 161.19 9.12611 161.19 19.1502C161.19 29.1743 169.317 37.3004 179.343 37.3004Z" fill="white" stroke="#78BCC4" stroke-miterlimit="10"/>
<path d="M229.855 123.282C232.189 123.282 234.081 121.391 234.081 119.057C234.081 116.723 232.189 114.831 229.855 114.831C227.521 114.831 225.629 116.723 225.629 119.057C225.629 121.391 227.521 123.282 229.855 123.282Z" fill="white" stroke="#78BCC4" stroke-miterlimit="10"/>
<path d="M217.076 195.36C203.512 201.477 206.531 219.889 206.531 219.889H177.954C177.954 219.889 176.082 199.646 195.301 194.978" fill="white"/>
<path d="M217.076 195.36C203.512 201.477 206.531 219.889 206.531 219.889H177.954C177.954 219.889 176.082 199.646 195.301 194.978" stroke="#78BCC4" stroke-miterlimit="10"/>
<path d="M183.086 216.911H191.156" stroke="#78BCC4" stroke-width="0.5" stroke-miterlimit="10"/>
<path d="M190.23 215.905H201.761" stroke="#78BCC4" stroke-width="0.5" stroke-miterlimit="10"/>
<path d="M184.454 213.973H188.218" stroke="#78BCC4" stroke-width="0.5" stroke-miterlimit="10"/>
<path d="M188.882 214.798H195.986" stroke="#78BCC4" stroke-width="0.5" stroke-miterlimit="10"/>
<path d="M183.086 211.417H197.998" stroke="#78BCC4" stroke-width="0.5" stroke-miterlimit="10"/>
<path d="M195.986 208.46H203.774" stroke="#78BCC4" stroke-width="0.5" stroke-miterlimit="10"/>
<path d="M188.882 209.405H192.444" stroke="#78BCC4" stroke-width="0.5" stroke-miterlimit="10"/>
<path d="M199.185 204.274H204.84" stroke="#78BCC4" stroke-width="0.5" stroke-miterlimit="10"/>
<path d="M194.919 206.045L204.84 206.165" stroke="#78BCC4" stroke-width="0.5" stroke-miterlimit="10"/>
<path d="M186.326 205.119H191.84" stroke="#78BCC4" stroke-width="0.5" stroke-miterlimit="10"/>
<path d="M193.168 199.505H199.185" stroke="#78BCC4" stroke-width="0.5" stroke-miterlimit="10"/>
<path d="M197.998 200.572H203.23" stroke="#78BCC4" stroke-width="0.5" stroke-miterlimit="10"/>
<path d="M197.998 196.527H207.658" stroke="#78BCC4" stroke-width="0.5" stroke-miterlimit="10"/>
<path d="M121.404 106.863C112.569 108.955 99.0459 116.461 96.4096 125.818C95.182 130.184 95.1619 134.591 96.1278 138.696C96.6309 140.829 97.4158 142.901 98.4421 144.833C99.4685 146.765 100.736 148.596 102.226 150.206C102.507 150.488 104.701 152.238 106.23 153.546C106.411 153.707 106.331 154.311 105.828 154.009C92.1633 146.041 84.999 129.661 89.3057 113.704C89.3459 113.584 89.3862 113.443 89.4063 113.342C89.4264 113.241 89.4868 113.08 89.5069 112.98C89.527 112.879 89.5673 112.758 89.5874 112.678C93.7531 99.3773 104.278 94.3668 117.319 94.6083L121.404 106.863Z" fill="url(#paint0_linear)"/>
<path d="M146.459 108.01C155.294 110.102 168.375 117.226 170.991 126.582C172.218 130.949 172.239 135.356 171.273 139.461C170.77 141.594 169.985 143.666 168.958 145.598C167.932 147.53 166.664 149.361 165.175 150.97C164.893 151.252 162.7 153.003 161.17 154.311C160.989 154.472 161.07 155.075 161.573 154.774C175.237 146.805 182.401 130.426 178.095 114.469C178.055 114.348 178.014 114.207 177.994 114.107C177.954 113.986 177.914 113.845 177.894 113.744C177.873 113.644 177.833 113.523 177.813 113.443C173.647 100.142 163.122 95.1315 150.082 95.3729L146.459 108.01Z" fill="url(#paint1_linear)"/>
<path d="M76.8891 182.803C77.1109 182.985 77.2722 183.106 77.3327 183.166C77.1714 183.045 77.0302 182.924 76.8891 182.803Z" fill="black" stroke="black" stroke-miterlimit="10"/>
<path d="M189.586 177.049C183.991 185.379 176.324 192.382 167.288 197.432C157.346 202.986 145.715 206.165 133.278 206.165C130.601 206.165 127.945 206.025 125.349 205.723C122.471 205.401 119.653 204.918 116.896 204.254C113.777 203.509 110.718 202.564 107.8 201.417C106.271 200.833 104.781 200.189 103.312 199.485C99.5894 197.734 96.0877 195.642 92.8074 193.287C86.6091 188.82 81.2761 183.367 77.0701 177.169C78.1367 177.31 79.4851 178.155 79.7467 178.316C74.0515 173.91 80.29 172.441 80.29 172.441C78.499 169.02 82.0409 170.992 82.4232 171.213C76.8488 167.732 83.9326 166.545 83.9326 166.545C86.75 161.313 89.1649 167.209 89.1649 167.209C92.244 161.716 93.4514 166.263 93.4514 166.263C88.7624 181.294 104.178 174.855 104.178 174.855C136.115 164.392 128.709 116.642 128.709 116.642H130.5H136.015H137.806C137.806 116.642 125.63 176.888 164.813 176.083C164.813 176.083 164.954 166.686 168.435 168.296C168.435 168.296 170.749 168.477 171.152 171.616C171.273 170.549 171.615 169.503 172.46 169.503C174.07 169.503 174.774 173.95 174.855 174.654C174.714 173.608 173.607 163.989 179.322 168.436C183.548 171.716 181.516 173.769 179.926 174.694C181.476 174.071 184.011 173.346 184.816 174.876C185.501 176.163 184.454 177.371 183.428 178.176C185.018 177.27 187.453 176.103 188.982 176.626C189.264 176.707 189.465 176.868 189.586 177.049Z" fill="white"/>
<path d="M127.885 113.02L127.663 113.885C127.925 113.744 128.207 113.624 128.509 113.503C128.992 113.302 129.535 113.12 130.119 112.98C129.535 112.959 128.509 113.02 127.885 113.02ZM138.933 113.02C137.826 113.08 137.162 113.02 136.558 113.02C136.961 113.12 137.363 113.221 137.786 113.362C138.209 113.503 138.631 113.644 139.074 113.825L138.933 113.02Z" fill="#006EA1"/>
<path d="M146.117 48.1259C135.311 43.9002 126.275 46.5765 122.612 48.0655C117.279 59.2937 113.174 75.0494 117.138 94.105C117.239 94.6081 121.324 108.814 124.886 115.897C124.886 115.897 125.852 114.791 127.704 113.865L127.925 113C128.549 113 129.575 112.939 130.159 112.939C129.052 98.5118 133.6 88.5111 133.6 88.5111C137.263 96.741 137.444 105.716 136.599 112.98C137.222 112.98 137.866 113.04 138.973 112.98L139.134 113.785C140.402 114.288 141.771 114.972 143.219 115.877C143.159 115.917 160.003 83.3196 146.117 48.1259ZM134.204 80.925C129.354 80.925 125.43 77.0012 125.43 72.1518C125.43 67.3023 129.354 63.3785 134.204 63.3785C139.054 63.3785 142.978 67.3023 142.978 72.1518C142.978 77.0012 139.054 80.925 134.204 80.925Z" fill="url(#paint2_linear)"/>
<path d="M144.97 45.4094C134.707 42.8539 127.241 44.3429 123.98 45.3088C129.414 34.966 135.451 29.1708 135.451 29.1708C139.476 34.5635 142.596 39.9965 144.97 45.4094Z" fill="url(#paint3_linear)"/>
<path d="M146.117 48.1259C135.31 43.9003 126.275 46.5765 122.612 48.0655C123.075 47.0997 123.518 46.1741 124.001 45.2887C127.261 44.3027 134.727 42.8137 144.99 45.3893C145.373 46.3149 145.755 47.2204 146.117 48.1259Z" fill="#FEC345"/>
<path d="M130.521 116.642H126.939L127.663 113.865L127.885 113C128.509 113 129.535 112.94 130.119 112.94C130.219 114.167 130.34 115.394 130.521 116.642Z" fill="#FEC345"/>
<path d="M139.617 116.642H136.035C136.236 115.495 136.417 114.267 136.558 113.02C137.182 113.02 137.826 113.08 138.933 113.02L139.094 113.825L139.617 116.642Z" fill="#FEC345"/>
<path d="M136.558 113.02C134.002 112.416 131.849 112.537 130.118 112.96C129.012 98.532 133.56 88.5313 133.56 88.5313C137.222 96.7814 137.424 105.756 136.558 113.02Z" fill="#FEC345"/>
<path d="M136.558 113.02C136.417 114.288 136.236 115.495 136.035 116.642H130.521C130.34 115.374 130.219 114.167 130.118 112.96C131.849 112.537 134.002 112.416 136.558 113.02Z" fill="#FEC345"/>
<path d="M136.035 116.642C134.908 123.182 133.157 127.649 133.157 127.649C131.849 123.826 131.004 120.123 130.521 116.642H136.035Z" fill="#FEC345"/>
<path d="M134.204 63.3785C129.354 63.3785 125.429 67.3024 125.429 72.1518C125.429 77.0012 129.354 80.9251 134.204 80.9251C139.054 80.9251 142.978 77.0012 142.978 72.1518C142.978 67.3024 139.054 63.3785 134.204 63.3785ZM134.204 78.0878C130.923 78.0878 128.267 75.4317 128.267 72.1518C128.267 68.8719 130.923 66.2158 134.204 66.2158C137.484 66.2158 140.14 68.8719 140.14 72.1518C140.14 75.4317 137.484 78.0878 134.204 78.0878Z" fill="#FEC345"/>
<path d="M140.14 72.1519C140.14 75.4318 137.484 78.088 134.204 78.088C130.923 78.088 128.267 75.4318 128.267 72.1519C128.267 68.872 130.923 66.2159 134.204 66.2159C137.484 66.2159 140.14 68.872 140.14 72.1519Z" fill="url(#paint4_radial)"/>
<path d="M167.268 197.433C157.326 202.986 145.695 206.166 133.258 206.166C130.581 206.166 127.925 206.025 125.329 205.723C123.578 203.61 123.175 200.934 125.429 197.594L136.035 174.654C136.035 174.674 146.459 199.022 167.268 197.433Z" fill="url(#paint5_linear)"/>
<path d="M103.292 199.505C99.5694 197.754 96.0677 195.662 92.7874 193.307C98.6235 190.349 122.954 167.209 110.316 183.246C102.809 192.764 104.741 193.187 103.292 199.505Z" fill="url(#paint6_linear)"/>
<path d="M116.896 204.274C113.777 203.529 110.718 202.584 107.8 201.437C112.429 194.293 120.841 181.375 122.612 179.504C124.644 177.31 117.46 185.098 116.896 204.274Z" fill="url(#paint7_linear)"/>
<defs>
<linearGradient id="paint0_linear" x1="94.0212" y1="150.757" x2="110.311" y2="92.6558" gradientUnits="userSpaceOnUse">
<stop offset="0.212" stop-color="#F7F8F3"/>
<stop offset="1" stop-color="#78BCC4"/>
</linearGradient>
<linearGradient id="paint1_linear" x1="173.555" y1="151.463" x2="157.265" y2="93.3614" gradientUnits="userSpaceOnUse">
<stop offset="0.212" stop-color="#F7F8F3"/>
<stop offset="1" stop-color="#78BCC4"/>
</linearGradient>
<linearGradient id="paint2_linear" x1="108.597" y1="80.8872" x2="144.66" y2="80.8872" gradientUnits="userSpaceOnUse">
<stop offset="0.00683801" stop-color="white"/>
<stop offset="0.5564" stop-color="#7CBEC6"/>
<stop offset="1" stop-color="#78BCC4"/>
</linearGradient>
<linearGradient id="paint3_linear" x1="123.978" y1="37.2957" x2="144.972" y2="37.2957" gradientUnits="userSpaceOnUse">
<stop offset="0.00683801" stop-color="white"/>
<stop offset="0.5564" stop-color="#7CBEC6"/>
<stop offset="1" stop-color="#78BCC4"/>
</linearGradient>
<radialGradient id="paint4_radial" cx="0" cy="0" r="1" gradientUnits="userSpaceOnUse" gradientTransform="translate(134.21 72.1485) scale(5.93973 5.93906)">
<stop stop-color="#FEC345"/>
<stop offset="1" stop-color="#F7444E"/>
</radialGradient>
<linearGradient id="paint5_linear" x1="123.889" y1="190.422" x2="167.277" y2="190.422" gradientUnits="userSpaceOnUse">
<stop offset="0.212" stop-color="white"/>
<stop offset="1" stop-color="#78BCC4"/>
</linearGradient>
<linearGradient id="paint6_linear" x1="92.7929" y1="188.577" x2="113.91" y2="188.577" gradientUnits="userSpaceOnUse">
<stop offset="0.4171" stop-color="white"/>
<stop offset="0.9282" stop-color="#78BCC4"/>
</linearGradient>
<linearGradient id="paint7_linear" x1="107.785" y1="191.706" x2="122.962" y2="191.706" gradientUnits="userSpaceOnUse">
<stop offset="0.3898" stop-color="white"/>
<stop offset="1" stop-color="#78BCC4"/>
</linearGradient>
</defs>
</svg>
