<svg width="40" height="40" viewBox="0 0 40 40" fill="none" xmlns="http://www.w3.org/2000/svg">
<path d="M32.5 32.5H7.5C6.50544 32.5 5.55161 32.1049 4.84835 31.4017C4.14509 30.6984 3.75 29.7446 3.75 28.75V11.25C3.75 10.2554 4.14509 9.30161 4.84835 8.59835C5.55161 7.89509 6.50544 7.5 7.5 7.5H32.5C33.4946 7.5 34.4484 7.89509 35.1517 8.59835C35.8549 9.30161 36.25 10.2554 36.25 11.25V28.75C36.25 29.7446 35.8549 30.6984 35.1517 31.4017C34.4484 32.1049 33.4946 32.5 32.5 32.5ZM7.5 10C7.16848 10 6.85054 10.1317 6.61612 10.3661C6.3817 10.6005 6.25 10.9185 6.25 11.25V28.75C6.25 29.0815 6.3817 29.3995 6.61612 29.6339C6.85054 29.8683 7.16848 30 7.5 30H32.5C32.8315 30 33.1495 29.8683 33.3839 29.6339C33.6183 29.3995 33.75 29.0815 33.75 28.75V11.25C33.75 10.9185 33.6183 10.6005 33.3839 10.3661C33.1495 10.1317 32.8315 10 32.5 10H7.5Z" fill="white"/>
<path d="M17.5 27.5H10C9.66848 27.5 9.35054 27.3683 9.11612 27.1339C8.8817 26.8995 8.75 26.5815 8.75 26.25C8.75 25.9185 8.8817 25.6005 9.11612 25.3661C9.35054 25.1317 9.66848 25 10 25H17.5C17.8315 25 18.1495 25.1317 18.3839 25.3661C18.6183 25.6005 18.75 25.9185 18.75 26.25C18.75 26.5815 18.6183 26.8995 18.3839 27.1339C18.1495 27.3683 17.8315 27.5 17.5 27.5Z" fill="white"/>
<path d="M35 16.25H5C4.66848 16.25 4.35054 16.1183 4.11612 15.8839C3.8817 15.6495 3.75 15.3315 3.75 15C3.75 14.6685 3.8817 14.3505 4.11612 14.1161C4.35054 13.8817 4.66848 13.75 5 13.75H35C35.3315 13.75 35.6495 13.8817 35.8839 14.1161C36.1183 14.3505 36.25 14.6685 36.25 15C36.25 15.3315 36.1183 15.6495 35.8839 15.8839C35.6495 16.1183 35.3315 16.25 35 16.25Z" fill="white"/>
</svg>
