<svg width="40" height="40" viewBox="0 0 40 40" fill="none" xmlns="http://www.w3.org/2000/svg">
<path d="M16.6562 19.6875C13.8437 19.6875 11.5625 21.9688 11.5625 24.7813C11.5625 25.9688 11.9687 27.125 12.75 28.0312L12.625 28.0938L20 33.9062L26.4375 28.8125L27.1562 28.25L27.0937 28.2188C27.9687 27.2813 28.4375 26.0625 28.4375 24.7813C28.4375 21.9688 26.1562 19.6875 23.3437 19.6875C22.0937 19.6875 20.9062 20.1562 20 20.9375C19.0625 20.1562 17.875 19.6875 16.6562 19.6875ZM23.3437 20.9375C25.4687 20.9375 27.1875 22.6563 27.1875 24.7813C27.1875 26 26.625 27.0937 25.6562 27.8438L24.9062 28.4062L20 32.3125L14.2813 27.7812L14.2188 27.75C13.3438 27.0313 12.8125 25.9375 12.8125 24.7813C12.8125 22.6563 14.5312 20.9375 16.6562 20.9375C17.75 20.9375 18.8125 21.4062 19.5312 22.25L20 22.7813L20.4688 22.25C21.1875 21.4062 22.25 20.9375 23.3437 20.9375Z" fill="#78BCC4"/>
<path d="M34.6875 3.75H28.75V9.125L20 0.375L0.375 20L2.8125 22.4375L5.3125 19.9375V39.375H34.6875V19.9375L37.1875 22.4375L39.625 20L34.6875 15.0625V3.75ZM33.4375 18.75V38.125H6.5625V18.75H6.5L20 5.25L33.5 18.75H33.4375ZM37.875 20L37.1875 20.6875L20 3.5L2.8125 20.6875L2.125 20L20 2.125L30 12.125V5H33.4375V15.5625L37.875 20Z" fill="white"/>
</svg>
