<svg width="40" height="40" viewBox="0 0 40 40" fill="none" xmlns="http://www.w3.org/2000/svg">
<path d="M38.2525 16.2631L23.75 13.2419V5C23.75 2.93187 22.0681 1.25 20 1.25C17.9319 1.25 16.25 2.93187 16.25 5V13.2419L1.7475 16.2631C1.45812 16.3231 1.25 16.5787 1.25 16.875V21.25C1.25 21.5956 1.53 21.875 1.875 21.875H3.865C3.795 22.0713 3.75 22.28 3.75 22.5C3.75 23.5338 4.59125 24.375 5.625 24.375C6.65875 24.375 7.5 23.5338 7.5 22.5C7.5 22.28 7.455 22.0713 7.385 21.875H9.49063C9.42 22.0713 9.375 22.28 9.375 22.5C9.375 23.5338 10.2163 24.375 11.25 24.375C12.2837 24.375 13.125 23.5338 13.125 22.5C13.125 22.28 13.08 22.0713 13.01 21.875H16.25V32.7712L13.4281 34.4644C13.24 34.5769 13.125 34.78 13.125 35V38.125C13.125 38.3225 13.2181 38.5081 13.3769 38.6269C13.5356 38.7444 13.74 38.78 13.9294 38.7238L20 36.9025L26.0706 38.7238C26.1294 38.7412 26.19 38.75 26.25 38.75C26.3825 38.75 26.5138 38.7081 26.6231 38.6269C26.7819 38.5081 26.875 38.3225 26.875 38.125V35C26.875 34.78 26.76 34.5769 26.5719 34.4644L23.75 32.7712V21.875H26.99C26.92 22.0713 26.875 22.28 26.875 22.5C26.875 23.5338 27.7162 24.375 28.75 24.375C29.7838 24.375 30.625 23.5338 30.625 22.5C30.625 22.28 30.58 22.0713 30.51 21.875H32.6156C32.545 22.0713 32.5 22.28 32.5 22.5C32.5 23.5338 33.3413 24.375 34.375 24.375C35.4087 24.375 36.25 23.5338 36.25 22.5C36.25 22.28 36.205 22.0713 36.135 21.875H38.125C38.47 21.875 38.75 21.5956 38.75 21.25V16.875C38.75 16.5787 38.5419 16.3231 38.2525 16.2631ZM13.75 20.625H10V19.375H13.75V20.625ZM8.75 20.625H5.625V19.375H8.75V20.625ZM6.25 22.5C6.25 22.845 5.96938 23.125 5.625 23.125C5.28062 23.125 5 22.845 5 22.5C5 22.155 5.28062 21.875 5.625 21.875C5.96938 21.875 6.25 22.155 6.25 22.5ZM11.875 22.5C11.875 22.845 11.5944 23.125 11.25 23.125C10.9056 23.125 10.625 22.845 10.625 22.5C10.625 22.155 10.9056 21.875 11.25 21.875C11.5944 21.875 11.875 22.155 11.875 22.5ZM34.375 20.625H31.25V19.375H34.375V20.625ZM30 20.625H26.25V19.375H30V20.625ZM29.375 22.5C29.375 22.845 29.0944 23.125 28.75 23.125C28.4056 23.125 28.125 22.845 28.125 22.5C28.125 22.155 28.4056 21.875 28.75 21.875C29.0944 21.875 29.375 22.155 29.375 22.5ZM35 22.5C35 22.845 34.7194 23.125 34.375 23.125C34.0306 23.125 33.75 22.845 33.75 22.5C33.75 22.155 34.0306 21.875 34.375 21.875C34.7194 21.875 35 22.155 35 22.5ZM37.5 20.625H35.625V18.75C35.625 18.4044 35.345 18.125 35 18.125H25.625C25.28 18.125 25 18.4044 25 18.75V20.625H23.125C22.78 20.625 22.5 20.9044 22.5 21.25V33.125C22.5 33.345 22.615 33.5481 22.8031 33.6606L25.625 35.3538V37.285L20.1794 35.6512C20.1213 35.6338 20.0606 35.625 20 35.625C19.9394 35.625 19.8787 35.6338 19.8206 35.6512L14.375 37.285V35.3538L17.1969 33.6606C17.385 33.5481 17.5 33.345 17.5 33.125V21.25C17.5 20.9044 17.22 20.625 16.875 20.625H15V18.75C15 18.4044 14.72 18.125 14.375 18.125H5C4.655 18.125 4.375 18.4044 4.375 18.75V20.625H2.5V17.3831L17.0025 14.3612C17.2919 14.3019 17.5 14.0463 17.5 13.75V5C17.5 3.62125 18.6213 2.5 20 2.5C21.3787 2.5 22.5 3.62125 22.5 5V13.75C22.5 14.0463 22.7081 14.3019 22.9975 14.3619L37.5 17.3831V20.625Z" fill="white"/>
<path d="M20 3.75C18.9662 3.75 18.125 4.59125 18.125 5.625H19.375C19.375 5.28 19.6556 5 20 5C20.3444 5 20.625 5.28 20.625 5.625H21.875C21.875 4.59125 21.0338 3.75 20 3.75Z" fill="white"/>
<path d="M20.625 29.375H19.375V34.375H20.625V29.375Z" fill="white"/>
</svg>
