<svg width="40" height="40" viewBox="0 0 40 40" fill="none" xmlns="http://www.w3.org/2000/svg">
<path d="M19.9998 13.3333H16.6665V21.6666H19.9998V13.3333Z" fill="#78BCC4"/>
<path d="M26.6663 13.3333H23.333V21.6666H26.6663V13.3333Z" fill="#78BCC4"/>
<path d="M33.3333 18.3333L30 21.6666V13.3333H33.3333V18.3333Z" fill="#78BCC4"/>
<path d="M37.5 8.33329H12.5C12 8.33329 11.6667 7.99996 11.6667 7.49996V6.66663V4.16663C11.6667 2.74996 10.5833 1.66663 9.16667 1.66663H0V3.33329H0.0833333C0.416667 4.99996 1.75 6.24996 3.41667 6.58329C3.75 8.49996 5.5 9.99996 7.5 9.99996H10V21.6666H11.6667V9.83329C11.9167 9.91663 12.1667 9.99996 12.5 9.99996H37.5C38 9.99996 38.3333 10.3333 38.3333 10.8333V16.6666C38.3333 17.3333 37.9167 18.5 37.4167 19L32.1667 24.8333C31.75 25.3333 30.6667 25.8333 30 25.8333H12.5C11.0833 25.8333 10 26.9166 10 28.3333V30.0833C8.08333 30.5 6.66667 32.1666 6.66667 34.1666C6.66667 36.5 8.5 38.3333 10.8333 38.3333C12.8333 38.3333 14.5 36.9166 14.9167 35H21.75C22.1667 36.9166 23.8333 38.3333 25.8333 38.3333C28.1667 38.3333 30 36.5 30 34.1666C30 31.8333 28.1667 30 25.8333 30C23.8333 30 22.1667 31.4166 21.75 33.3333H14.9167C14.5833 31.6666 13.3333 30.4166 11.6667 30.0833V28.3333C11.6667 27.8333 12 27.5 12.5 27.5H30C31.1667 27.5 32.5833 26.8333 33.4167 26L38.6667 20.1666C39.4167 19.3333 40 17.8333 40 16.6666V10.8333C40 9.41663 38.9167 8.33329 37.5 8.33329ZM1.83333 3.33329H9.16667C9.66667 3.33329 10 3.66663 10 4.16663V4.99996H4.16667C3.08333 4.99996 2.16667 4.33329 1.83333 3.33329ZM7.5 8.33329C6.41667 8.33329 5.5 7.66663 5.16667 6.66663H10V7.49996V8.33329H7.5ZM25.8333 31.6666C27.25 31.6666 28.3333 32.75 28.3333 34.1666C28.3333 35.5833 27.25 36.6666 25.8333 36.6666C24.4167 36.6666 23.3333 35.5833 23.3333 34.1666C23.3333 32.75 24.4167 31.6666 25.8333 31.6666ZM13.3333 34.1666C13.3333 35.5833 12.25 36.6666 10.8333 36.6666C9.41667 36.6666 8.33333 35.5833 8.33333 34.1666C8.33333 32.75 9.41667 31.6666 10.8333 31.6666C12.25 31.6666 13.3333 32.75 13.3333 34.1666Z" fill="white"/>
<path d="M25.8335 35.4166C26.5002 35.4166 27.0835 34.8333 27.0835 34.1666C27.0835 33.5 26.5002 32.9166 25.8335 32.9166C25.1668 32.9166 24.5835 33.5 24.5835 34.1666C24.5835 34.8333 25.1668 35.4166 25.8335 35.4166Z" fill="white"/>
<path d="M9.5835 34.1666C9.5835 34.8333 10.1668 35.4166 10.8335 35.4166C11.5002 35.4166 12.0835 34.8333 12.0835 34.1666C12.0835 33.5 11.5002 32.9166 10.8335 32.9166C10.1668 32.9166 9.5835 33.5 9.5835 34.1666Z" fill="white"/>
</svg>
